<?xml version="1.0" encoding="utf-8"?>
<!-- Generator: Adobe Illustrator 25.4.1, SVG Export Plug-In . SVG Version: 6.00 Build 0)  -->
<svg version="1.1" id="Layer_1" xmlns="http://www.w3.org/2000/svg" xmlns:xlink="http://www.w3.org/1999/xlink" x="0px" y="0px"
	 viewBox="0 0 857 215.8" style="enable-background:new 0 0 857 215.8;" xml:space="preserve">
<g transform="translate(0.000000,800.000000) scale(0.100000,-0.100000)">
	<path d="M338,7952c-61-56-128-141-172-220c-41-72-42-77-21-77c9,0,25,23,39,54c35,79,91,162,154,228C403,8005,403,8011,338,7952z"
		/>
	<path d="M1691,7937c69-80,123-162,151-229c12-29,28-53,35-53s13,5,13,10c0,38-112,198-191,275l-62,60L1691,7937z"/>
	<path d="M992,7833c-6-6-12-22-12-34c0-17-8-23-34-28c-54-10-112-59-138-116c-12-27-29-50-35-50c-18,0-16-17,2-24c8-3,15-15,15-27
		c0-19-4-20-47-15c-46,6-727,76-738,76c-3,0-5-60-5-134c0-123,2-134,18-130c27,6,706,74,741,74c24,0,31-4,31-19c0-10-9-21-20-24
		c-25-6-26-36-2-43c66-22,62-5,62-248c0-250-6-277-75-333c-66-55-144-65-249-33c-54,17-79,33-131,82c-118,110-205,263-241,424
		c-15,69-18,75-38,70c-11-3-25-6-30-6c-12,0,1-135,25-252c48-243,181-503,367-724l60-71l-26-27c-25-25-22-25,59,13
		c175,82,401,122,570,102c52-6,137-22,189-36c161-44,281-59,376-47c149,20,255,71,339,164c25,28,45,54,45,59c0,4-21-6-46-23
		c-79-53-174-80-304-86c-114-5-114-5-100,15c117,163,188,285,245,424c43,104,86,285,92,390c6,95,6,96-18,102c-13,4-27,7-30,7
		c-4,0-9-23-13-51c-26-191-195-449-340-515c-155-71-310-18-351,118c-11,39-15,100-15,249c0,193,1,198,22,213c12,9,30,16,40,16
		c13,0,18,8,18,25c0,16-6,25-15,25s-15,9-15,23v22l363-37c199-20,377-37,395-37l32-1v130c0,72-2,130-4,130c-12,0-707-71-743-75
		c-41-6-43-5-43,19c0,13,6,27,13,30c9,5,9,7-1,12c-7,3-19,22-28,42c-26,63-85,113-154,132c-18,4-27,15-30,36
		C1034,7842,1012,7853,992,7833z M915,7485v-95l-27-3l-28-3v101v101l28-3l27-3V7485z M1050,7483v-99l-37,3l-38,3l-3,84
		c-2,46-1,89,1,96c3,6,21,11,41,12l36,1V7483z M1165,7485v-95l-27-3l-28-3v101v101l28-3l27-3V7485z M1008,6958l2-353h-29
		c-16,0-43,3-60,6l-31,7v349v349l58-3l57-3L1008,6958z"/>
	<path d="M2370,7415v-360h173c255,0,267,9,267,201c0,100-3,120-19,140c-18,23-18,25-3,43c13,14,18,43,20,136c4,131-1,150-51,180
		c-29,18-51,20-209,20h-178V7415z M2645,7570v-90l-57-3l-58-3v96v96l58-3l57-3V7570z M2634,7359c13-5,16-23,16-94c0-99-1-100-76-100
		h-44v100v100h44C2598,7365,2625,7362,2634,7359z"/>
	<path d="M2910,7678c0-54-3-216-7-361l-6-262l273,2l274,3l8,40c18,93,10,85,97,85h79l11-50c6-28,11-58,11-65c0-12,17-15,85-15
		c47,0,85,2,85,4c0,3-25,112-56,243s-69,290-83,353l-27,115l-105,3l-104,3l-80-351c-67-293-81-343-83-301l-3,51h-105h-104v300v300
		h-80h-80V7678z M3579,7450c11-67,21-126,21-133c0-8-19-12-56-12c-48,0-55,2-50,18c3,9,15,72,27,140c13,67,26,119,30,115
		C3554,7573,3567,7516,3579,7450z"/>
	<path d="M3935,7766c-11-5-29-19-40-31c-19-21-20-38-23-309c-2-216,1-292,11-311c23-46,69-60,202-60c186,0,215,22,215,168v82h-80
		h-80v-58c0-32-5-63-12-70c-16-16-73-15-87,2c-8,9-11,83-9,247l3,234l44,3c54,4,61-5,61-80v-58h80h80v79c0,152-24,171-215,170
		C4014,7774,3946,7770,3935,7766z"/>
	<path d="M4380,7415v-360h85h85l2,173l3,172l65-172l65-173h88c48,0,87,3,87,6c0,4-32,87-70,184l-71,178l71,172c38,95,70,174,70,176
		s-39,4-87,4h-88l-67-173l-67-172l-1,173v172h-85h-85V7415z"/>
	<path d="M5130,7678c0-54-3-216-7-360l-6-263h271h272l5,23c3,12,9,40,13,62l8,40l81,3l81,3l12-66l12-65h85c76,0,84,2,79,18
		c-3,9-39,163-81,342s-78,333-81,343c-5,15-19,17-109,17h-103l-7-32c-11-52-134-589-144-628l-9-35l-1,48l-1,47h-105h-105v300v300
		h-80h-80V7678z M5795,7454c14-74,25-137,25-141c0-5-25-8-56-8c-53,0-56,1-51,23c3,12,16,77,28,144c12,68,24,121,26,119
		S5782,7527,5795,7454z"/>
	<path d="M6090,7415v-360h75h75v213l1,212l77-212l77-213h72h73v360v360h-75h-75l-2-202l-3-201l-71,199l-72,199l-76,3l-76,3V7415z"/>
	<path d="M6600,7715v-60h65h65v-300v-300h80h80v300v300h65h65v60v60h-210h-210V7715z"/>
	<path d="M7080,7415v-360h200h200v60v60h-120h-120v95v95h95h95v60v60h-95h-95v85v85h110h110v60v60h-190h-190V7415z"/>
	<path d="M7540,7415v-360h85h85v136c0,102,3,135,12,132c7-3,37-64,67-136l55-132h88c48,0,88,2,88,4s-27,61-60,130
		c-33,70-60,131-60,136c0,6,6,10,14,10s26,14,40,31c25,30,26,34,26,179c0,90-5,159-11,174c-22,47-60,56-253,56h-176V7415z
		 M7818,7553c2-89,1-98-18-108c-11-6-38-10-58-8l-37,3l-3,108l-3,108l58-3l58-3L7818,7553z"/>
	<path d="M8070,7415v-360h75h75l2,211l3,211l76-209l75-208l79-3l78-3l-6,263c-4,145-7,307-7,361v97h-70h-70v-182c0-101-4-189-9-196
		c-5-8-32,56-77,180l-69,193l-78,3l-77,3V7415z"/>
	<path d="M3515,6886c-70-17-95-45-95-104c0-49,40-80,129-102c78-19,96-33,87-69c-4-18-16-28-41-35c-48-13-86,0-110,37
		c-14,22-28,31-47,32c-36,0-40-10-20-50c24-47,62-72,120-78c64-6,115,11,147,49c28,35,32,67,10,108c-15,30-41,44-120,62
		c-70,17-85,26-85,54s26,45,69,45c30,0,71-29,71-50c0-5,16-10,36-10c34,0,36,1,29,27c-4,16-12,34-18,41
		C3649,6877,3568,6898,3515,6886z"/>
	<path d="M4681,6885c-80-19-124-77-129-168c-3-56,0-74,20-111c43-80,148-114,228-73c40,20,80,74,80,108c0,20-5,24-29,24
		c-22,0-31-6-36-22c-13-43-46-68-87-68c-50,0-74,13-93,50c-18,35-20,119-3,155c14,32,56,55,99,55c23,0,40-9,65-35
		c59-62,115-37,63,29C4821,6878,4747,6901,4681,6885z"/>
	<path d="M4000,6705v-180h141h140l-3,28l-3,27l-102,3l-103,3v49v50h95c95,0,95,0,95,25s0,25-95,25h-95v45v45h100h100v30v30h-135
		h-135V6705z"/>
	<path d="M5174,6870c-3-8-4-70-3-138c5-163,29-201,135-213c67-8,123,12,151,55c21,31,23,45,23,173v139l-32-3l-33-3l-5-138
		c-4-122-7-140-24-153c-28-20-89-18-117,5c-23,18-24,26-27,155l-4,136h-29C5192,6885,5177,6879,5174,6870z"/>
	<path d="M5790,6705v-180h35h35v70v70h68c78,0,92-9,92-59c0-69,8-81,52-81c35,0,38,2,28,19c-5,11-10,36-10,56c0,37-15,74-34,87
		c-7,4-3,15,12,31s22,36,22,63c0,82-44,104-202,104h-98V6705z M6018,6781c4-49-6-56-90-56h-68v50v51l78-3l77-3L6018,6781z"/>
	<path d="M6395,6877c-3-3-5-83-5-179v-173h35h35v179v180l-30-1C6414,6882,6398,6880,6395,6877z"/>
	<path d="M6740,6855v-30h60h60v-150v-150h35h35v150v150h61c60,0,60,0,57,28l-3,27l-152,3l-153,3V6855z"/>
	<path d="M7286,6873c4-7,36-57,71-111c62-96,63-99,63-167v-70h35h35v72c0,70,1,73,60,164c80,123,80,124,37,124c-32,0-37-5-83-79
		c-41-68-50-77-59-63c-6,9-28,45-49,80c-36,59-39,62-77,62C7290,6885,7281,6882,7286,6873z"/>
	<path d="M2370,6720v-25h406h405l-3,23l-3,22l-402,3l-403,2V6720z"/>
	<path d="M7767,6738c-4-3-7-15-7-25c0-17,19-18,405-18h405v25v25h-398C7953,6745,7770,6742,7767,6738z"/>
	<path d="M2411,6263c-23-51-41-96-41-100c0-21,29-4,40,22c11,27,17,30,56,30c38,0,45-4,59-30c15-28,53-44,42-17
		c-60,144-82,187-97,187C2458,6355,2440,6327,2411,6263z M2488,6273c11-27,11-28-19-28c-26,0-30,3-24,18c4,9,10,25,12,35
		C2463,6319,2471,6312,2488,6273z"/>
	<path d="M2770,6340c0-10,11-15,35-15h34l3-82c2-66,6-83,18-83s15,15,17,70c1,39,2,76,2,83c1,7,15,12,36,12c24,0,35,5,35,15
		c0,12-17,15-90,15S2770,6352,2770,6340z"/>
	<path d="M3160,6340c0-10,11-15,35-15h35l1-70c2-95,2-95,19-95c12,0,16,17,18,83l3,82h34c24,0,35,5,35,15c0,12-17,15-90,15
		S3160,6352,3160,6340z"/>
	<path d="M3603,6298c-67-151-64-143-44-143c12,0,23,11,30,30c9,27,14,30,54,30s46-3,57-30c7-18,20-30,31-30c16,0,15,8-16,80
		C3653,6381,3643,6386,3603,6298z M3669,6251c-2-2-14-7-26-10c-27-8-30,8-11,50l12,26l15-31C3667,6269,3672,6253,3669,6251z"/>
	<path d="M4014,6341c-52-37-55-128-7-166c38-30,106-27,138,5c26,25,33,55,14,55c-6,0-20-11-31-25c-14-18-29-25-53-25
		c-44,0-65,22-65,70s21,70,65,70c32,0,65-21,65-41c0-5,7-9,15-9c20,0,19,23-3,50C4128,6354,4045,6364,4014,6341z"/>
	<path d="M4420,6255c0-82,3-100,15-100c10,0,15,10,15,34c0,19,7,39,16,47c14,11,22,7,58-35c27-31,48-47,59-45c15,3,10,14-28,59
		l-47,54l41,38c46,43,48,48,25,48c-9,0-39-21-68-46l-51-47l-3,47c-2,32-7,46-18,46S4420,6336,4420,6255z"/>
	<path d="M5127,6348c-16-15-5-23,33-23h40v-85c0-69,3-85,15-85s15,16,15,85v85h35c24,0,35,5,35,15c0,12-16,15-83,15
		C5171,6355,5130,6352,5127,6348z"/>
	<path d="M5574,6344c-58-30-64-137-11-174c35-24,111-19,144,9c24,21,28,32,28,75c0,66-24,92-92,97C5617,6353,5585,6350,5574,6344z
		 M5676,6317c38-25,40-103,4-122c-29-15-81-12-102,7c-23,20-24,80-1,105C5593,6325,5654,6332,5676,6317z"/>
	<path d="M6290,6256v-101h65c57,0,69,3,90,25c20,19,25,34,25,73c0,75-19,93-108,100l-72,5V6256z M6422,6308c23-20,24-85,2-107
		c-9-10-33-16-60-16h-44v70v70h42C6386,6325,6411,6318,6422,6308z"/>
	<path d="M6720,6255v-100h80c64,0,80,3,80,15s-14,15-65,15h-65v30v30h60c47,0,60,3,60,15c0,10-9,15-27,14c-78-4-93,0-93,26
		c0,24,2,25,65,25c51,0,65,3,65,15s-16,15-80,15h-80V6255z"/>
	<path d="M7130,6255c0-82,3-100,15-100c11,0,15,12,15,45v45h55c44,0,55,3,55,16s-10,15-55,12c-54-3-55-3-55,25c0,26,1,27,60,27
		c49,0,58,3,54,15c-5,11-23,15-75,15h-69V6255z"/>
	<path d="M7520,6255v-100h74c56,0,75,4,80,15c4,12-6,15-59,15h-65v30v30h60c33,0,60,4,60,9c0,14-27,21-76,21c-40,0-44,2-44,25
		c0,24,3,25,60,25c47,0,60,3,60,15s-15,15-75,15h-75V6255z"/>
	<path d="M7920,6254c0-90,2-100,18-97c14,3,17,15,19,67c2,35,4,66,6,67c2,2,27-28,57-66c31-40,62-70,72-70c16,0,18,11,18,100
		c0,81-3,100-15,100c-11,0-15-17-17-75l-3-75l-59,75c-36,45-66,75-77,75C7922,6355,7920,6346,7920,6254z"/>
	<path d="M8370,6255v-100h59c49,0,65,4,88,24c24,21,28,32,28,76s-4,55-28,76c-23,20-39,24-88,24h-59V6255z M8501,6304
		c17-17,20-29,16-56c-9-50-23-63-73-63h-44v70v70h40C8467,6325,8487,6318,8501,6304z"/>
	<path d="M890,6264c-70-8-205-42-275-69l-30-12l77-74c77-73,263-217,323-250l32-17l89,61c49,33,122,89,163,123l75,63l-30,9
		c-29,8-176,2-211-9c-16-5-16-4-2,5c67,44,255,54,359,21c84-27,214-37,266-20c46,15,102,53,127,86c17,23,17,23-33-3
		c-62-32-162-41-235-20C1196,6268,1081,6286,890,6264z"/>
</g>
</svg>
